<svg width="395" height="226" viewBox="0 0 395 226" fill="none" xmlns="http://www.w3.org/2000/svg">
  <path d="M28.7201 0.740234H371.28C384.3 0.740234 394.88 11.3102 394.88 24.3402V201.66C394.88 214.68 384.31 225.26 371.28 225.26H28.7201C15.7001 225.26 5.12012 214.69 5.12012 201.66V24.3402C5.12012 11.3202 15.6901 0.740234 28.7201 0.740234Z" fill="#EDECEC"/>
  <mask id="mask0_85_1276" style="mask-type:luminance" maskUnits="userSpaceOnUse" x="5" y="0" width="390" height="226">
    <path d="M370.67 0.740234H29.3301C15.9593 0.740234 5.12012 11.5794 5.12012 24.9502V201.05C5.12012 214.421 15.9593 225.26 29.3301 225.26H370.67C384.041 225.26 394.88 214.421 394.88 201.05V24.9502C394.88 11.5794 384.041 0.740234 370.67 0.740234Z" fill="white"/>
  </mask>
  <g mask="url(#mask0_85_1276)">
    <path fill-rule="evenodd" clip-rule="evenodd" d="M-68.3296 20.5606L-46.1696 -1.60938H16.8204L-5.33959 20.5606H-68.3296Z" fill="#1A337F"/>
    <path fill-rule="evenodd" clip-rule="evenodd" d="M58.7407 19.4603L80.9007 -2.69969V-65.6797L58.7407 -43.5197V19.4603Z" fill="#2C468F"/>
    <path fill-rule="evenodd" clip-rule="evenodd" d="M37.3008 40.9L59.4608 18.73V-44.25L37.3008 -22.09V40.9Z" fill="#0F225E"/>
    <path fill-rule="evenodd" clip-rule="evenodd" d="M15.6509 62.5504L37.8109 40.3804V-22.5996L15.6509 -0.43961V62.5504Z" fill="#2C468F"/>
    <path fill-rule="evenodd" clip-rule="evenodd" d="M-5.33936 83.5406L16.8206 61.3806V-1.60938L-5.33936 20.5606V83.5406Z" fill="#1A337F"/>
    <path fill-rule="evenodd" clip-rule="evenodd" d="M142.72 61.4505L164.88 39.2905V-23.6895L142.72 -1.52945V61.4505Z" fill="#0F225E"/>
    <path fill-rule="evenodd" clip-rule="evenodd" d="M121.72 82.4508L143.88 60.2908V-2.69922L121.72 19.4608V82.4508Z" fill="#2C468F"/>
    <path fill-rule="evenodd" clip-rule="evenodd" d="M100.291 103.88L122.451 81.7205V18.7305L100.291 40.9005V103.88Z" fill="#0F225E"/>
    <path fill-rule="evenodd" clip-rule="evenodd" d="M78.6406 125.531L100.801 103.371V40.3809L78.6406 62.5509V125.531Z" fill="#2C468F"/>
    <path fill-rule="evenodd" clip-rule="evenodd" d="M57.6406 146.531L79.8006 124.371V61.3809L57.6406 83.5409V146.531Z" fill="#1A337F"/>
    <path fill-rule="evenodd" clip-rule="evenodd" d="M36.2104 167.961L58.3704 145.801V82.8105L36.2104 104.981V167.961Z" fill="#0F225E"/>
    <path fill-rule="evenodd" clip-rule="evenodd" d="M14.7002 189.47L36.8702 167.3V104.32L14.7002 126.48V189.47Z" fill="#152D77"/>
    <path fill-rule="evenodd" clip-rule="evenodd" d="M-6.57959 210.75L15.5804 188.59V125.61L-6.57959 147.77V210.75Z" fill="#0F225E"/>
    <path fill-rule="evenodd" clip-rule="evenodd" d="M58.7402 19.4608L80.9002 -2.69922H143.88L121.72 19.4608H58.7402Z" fill="#2C468F"/>
    <path fill-rule="evenodd" clip-rule="evenodd" d="M37.3003 40.9005L59.4603 18.7305H122.45L100.29 40.9005H37.3003Z" fill="#0F225E"/>
    <path fill-rule="evenodd" clip-rule="evenodd" d="M15.6504 62.5509L37.8104 40.3809H100.8L78.6404 62.5509H15.6504Z" fill="#2C468F"/>
    <path fill-rule="evenodd" clip-rule="evenodd" d="M-5.33984 83.5409L16.8202 61.3809H79.8002L57.6402 83.5409H-5.33984Z" fill="#1A337F"/>
    <path fill-rule="evenodd" clip-rule="evenodd" d="M-26.7798 104.981L-4.61979 82.8105H58.3702L36.2102 104.981H-26.7798Z" fill="#0F225E"/>
    <path fill-rule="evenodd" clip-rule="evenodd" d="M-48.2798 126.48L-26.1198 104.32H36.8702L14.7002 126.48H-48.2798Z" fill="#152D77"/>
    <path fill-rule="evenodd" clip-rule="evenodd" d="M-69.5698 147.77L-47.4098 125.61H15.5802L-6.57983 147.77H-69.5698Z" fill="#0F225E"/>
    <path fill-rule="evenodd" clip-rule="evenodd" d="M142.72 61.45L164.88 39.29H227.86L205.7 61.45H142.72Z" fill="#0F225E"/>
    <path fill-rule="evenodd" clip-rule="evenodd" d="M121.72 82.45L143.88 60.29H206.87L184.71 82.45H121.72Z" fill="#2C468F"/>
    <path fill-rule="evenodd" clip-rule="evenodd" d="M100.29 103.88L122.45 81.7197H185.44L163.27 103.88H100.29Z" fill="#0F225E"/>
    <path fill-rule="evenodd" clip-rule="evenodd" d="M78.6401 125.53L100.8 103.37H163.79L141.62 125.53H78.6401Z" fill="#2C468F"/>
    <path fill-rule="evenodd" clip-rule="evenodd" d="M57.6401 146.53L79.8001 124.37H142.79L120.63 146.53H57.6401Z" fill="#1A337F"/>
    <path fill-rule="evenodd" clip-rule="evenodd" d="M36.2104 167.96L58.3704 145.8H121.36L99.2004 167.96H36.2104Z" fill="#0F225E"/>
    <path fill-rule="evenodd" clip-rule="evenodd" d="M14.7002 189.47L36.8702 167.3H99.8502L77.6902 189.47H14.7002Z" fill="#152D77"/>
    <path fill-rule="evenodd" clip-rule="evenodd" d="M-6.57959 210.75L15.5804 188.59H78.5604L56.4004 210.75H-6.57959Z" fill="#0F225E"/>
    <path fill-rule="evenodd" clip-rule="evenodd" d="M-27.5098 231.68L-5.33977 209.521H57.6402L35.4802 231.68H-27.5098Z" fill="#1A337F"/>
    <path fill-rule="evenodd" clip-rule="evenodd" d="M205.701 124.44L227.861 102.28V39.29L205.701 61.45V124.44Z" fill="#0F225E"/>
    <path fill-rule="evenodd" clip-rule="evenodd" d="M184.71 145.44L206.87 123.27V60.29L184.71 82.45V145.44Z" fill="#2C468F"/>
    <path fill-rule="evenodd" clip-rule="evenodd" d="M163.271 166.87L185.441 144.71V81.7197L163.271 103.88V166.87Z" fill="#0F225E"/>
    <path fill-rule="evenodd" clip-rule="evenodd" d="M141.621 188.52L163.791 166.36V103.37L141.621 125.53V188.52Z" fill="#2C468F"/>
    <path fill-rule="evenodd" clip-rule="evenodd" d="M120.63 209.52L142.79 187.35V124.37L120.63 146.53V209.52Z" fill="#1A337F"/>
    <path fill-rule="evenodd" clip-rule="evenodd" d="M99.2007 230.95L121.361 208.78V145.8L99.2007 167.96V230.95Z" fill="#0F225E"/>
    <path fill-rule="evenodd" clip-rule="evenodd" d="M77.6904 252.45L99.8504 230.29V167.3L77.6904 189.47V252.45Z" fill="#152D77"/>
    <path fill-rule="evenodd" clip-rule="evenodd" d="M56.4004 273.74L78.5604 251.58V188.59L56.4004 210.75V273.74Z" fill="#0F225E"/>
    <path fill-rule="evenodd" clip-rule="evenodd" d="M35.4805 294.661L57.6405 272.501V209.521L35.4805 231.68V294.661Z" fill="#1A337F"/>
    <path fill-rule="evenodd" clip-rule="evenodd" d="M268.69 187.43L290.85 165.26V102.28L268.69 124.44V187.43Z" fill="#0F225E"/>
    <path fill-rule="evenodd" clip-rule="evenodd" d="M247.69 208.421L269.86 186.26V123.271L247.69 145.441V208.421Z" fill="#2C468F"/>
    <path fill-rule="evenodd" clip-rule="evenodd" d="M226.261 229.85L248.421 207.69V144.71L226.261 166.87V229.85Z" fill="#0F225E"/>
    <path fill-rule="evenodd" clip-rule="evenodd" d="M204.611 251.51L226.771 229.34V166.36L204.611 188.52V251.51Z" fill="#2C468F"/>
    <path fill-rule="evenodd" clip-rule="evenodd" d="M183.611 272.501L205.781 250.341V187.351L183.611 209.521V272.501Z" fill="#1A337F"/>
    <path fill-rule="evenodd" clip-rule="evenodd" d="M162.181 293.93L184.341 271.77V208.78L162.181 230.95V293.93Z" fill="#0F225E"/>
    <path fill-rule="evenodd" clip-rule="evenodd" d="M205.7 124.44L227.86 102.28H290.85L268.69 124.44H205.7Z" fill="#0F225E"/>
    <path fill-rule="evenodd" clip-rule="evenodd" d="M184.71 145.441L206.87 123.271H269.86L247.69 145.441H184.71Z" fill="#2C468F"/>
    <path fill-rule="evenodd" clip-rule="evenodd" d="M163.271 166.87L185.441 144.71H248.421L226.26 166.87H163.271Z" fill="#0F225E"/>
    <path fill-rule="evenodd" clip-rule="evenodd" d="M141.621 188.52L163.791 166.36H226.771L204.611 188.52H141.621Z" fill="#2C468F"/>
    <path fill-rule="evenodd" clip-rule="evenodd" d="M120.63 209.521L142.79 187.351H205.78L183.61 209.521H120.63Z" fill="#1A337F"/>
    <path fill-rule="evenodd" clip-rule="evenodd" d="M99.2002 230.95L121.36 208.78H184.34L162.18 230.95H99.2002Z" fill="#0F225E"/>
    <path fill-rule="evenodd" clip-rule="evenodd" d="M268.69 187.431L290.85 165.261H353.84L331.68 187.431H268.69Z" fill="#0F225E"/>
    <path fill-rule="evenodd" clip-rule="evenodd" d="M247.69 208.421L269.86 186.261H332.84L310.68 208.421H247.69Z" fill="#2C468F"/>
    <path fill-rule="evenodd" clip-rule="evenodd" d="M226.26 229.85L248.42 207.69H311.41L289.25 229.85H226.26Z" fill="#0F225E"/>
    <path fill-rule="evenodd" clip-rule="evenodd" d="M331.681 250.411L353.841 228.251V165.261L331.681 187.431V250.411Z" fill="#0F225E"/>
    <path fill-rule="evenodd" clip-rule="evenodd" d="M310.681 271.411L332.841 249.241V186.261L310.681 208.421V271.411Z" fill="#2C468F"/>
    <path fill-rule="evenodd" clip-rule="evenodd" d="M289.25 292.84L311.41 270.68V207.69L289.25 229.85V292.84Z" fill="#0F225E"/>
    <path fill-rule="evenodd" clip-rule="evenodd" d="M-68.3296 20.5606L-46.1696 -1.60938H16.8204L-5.33959 20.5606H-68.3296Z" fill="#1A337F"/>
    <path fill-rule="evenodd" clip-rule="evenodd" d="M58.7407 19.4603L80.9007 -2.69969V-65.6797L58.7407 -43.5197V19.4603Z" fill="#2C468F"/>
    <path fill-rule="evenodd" clip-rule="evenodd" d="M37.3008 40.9L59.4608 18.73V-44.25L37.3008 -22.09V40.9Z" fill="#0F225E"/>
    <path fill-rule="evenodd" clip-rule="evenodd" d="M15.6509 62.5504L37.8109 40.3804V-22.5996L15.6509 -0.43961V62.5504Z" fill="#2C468F"/>
    <path fill-rule="evenodd" clip-rule="evenodd" d="M-5.33936 83.5406L16.8206 61.3806V-1.60938L-5.33936 20.5606V83.5406Z" fill="#1A337F"/>
    <path fill-rule="evenodd" clip-rule="evenodd" d="M142.72 61.4505L164.88 39.2905V-23.6895L142.72 -1.52945V61.4505Z" fill="#0F225E"/>
    <path fill-rule="evenodd" clip-rule="evenodd" d="M121.72 82.4508L143.88 60.2908V-2.69922L121.72 19.4608V82.4508Z" fill="#2C468F"/>
    <path fill-rule="evenodd" clip-rule="evenodd" d="M100.291 103.88L122.451 81.7205V18.7305L100.291 40.9005V103.88Z" fill="#0F225E"/>
    <path fill-rule="evenodd" clip-rule="evenodd" d="M78.6406 125.531L100.801 103.371V40.3809L78.6406 62.5509V125.531Z" fill="#2C468F"/>
    <path fill-rule="evenodd" clip-rule="evenodd" d="M57.6406 146.531L79.8006 124.371V61.3809L57.6406 83.5409V146.531Z" fill="#1A337F"/>
    <path fill-rule="evenodd" clip-rule="evenodd" d="M36.2104 167.961L58.3704 145.801V82.8105L36.2104 104.981V167.961Z" fill="#2C468F"/>
    <path fill-rule="evenodd" clip-rule="evenodd" d="M14.7002 189.47L36.8702 167.3V104.32L14.7002 126.48V189.47Z" fill="#152D77"/>
    <path fill-rule="evenodd" clip-rule="evenodd" d="M-6.57959 210.75L15.5804 188.59V125.61L-6.57959 147.77V210.75Z" fill="#0F225E"/>
    <path fill-rule="evenodd" clip-rule="evenodd" d="M58.7402 19.4608L80.9002 -2.69922H143.88L121.72 19.4608H58.7402Z" fill="#2C468F"/>
    <path fill-rule="evenodd" clip-rule="evenodd" d="M37.3003 40.9005L59.4603 18.7305H122.45L100.29 40.9005H37.3003Z" fill="#0F225E"/>
    <path fill-rule="evenodd" clip-rule="evenodd" d="M15.6504 62.5509L37.8104 40.3809H100.8L78.6404 62.5509H15.6504Z" fill="#2C468F"/>
    <path fill-rule="evenodd" clip-rule="evenodd" d="M-5.33984 83.5409L16.8202 61.3809H79.8002L57.6402 83.5409H-5.33984Z" fill="#1A337F"/>
    <path fill-rule="evenodd" clip-rule="evenodd" d="M-26.7798 104.981L-4.61979 82.8105H58.3702L36.2102 104.981H-26.7798Z" fill="#0F225E"/>
    <path fill-rule="evenodd" clip-rule="evenodd" d="M-48.2798 126.48L-26.1198 104.32H36.8702L14.7002 126.48H-48.2798Z" fill="#2C468F"/>
    <path fill-rule="evenodd" clip-rule="evenodd" d="M-69.5698 147.77L-47.4098 125.61H15.5802L-6.57983 147.77H-69.5698Z" fill="#0F225E"/>
    <path fill-rule="evenodd" clip-rule="evenodd" d="M142.72 61.45L164.88 39.29H227.86L205.7 61.45H142.72Z" fill="#0F225E"/>
    <path fill-rule="evenodd" clip-rule="evenodd" d="M121.72 82.45L143.88 60.29H206.87L184.71 82.45H121.72Z" fill="#2C468F"/>
    <path fill-rule="evenodd" clip-rule="evenodd" d="M100.29 103.88L122.45 81.7197H185.44L163.27 103.88H100.29Z" fill="#0F225E"/>
    <path fill-rule="evenodd" clip-rule="evenodd" d="M78.6401 125.53L100.8 103.37H163.79L141.62 125.53H78.6401Z" fill="#2C468F"/>
    <path fill-rule="evenodd" clip-rule="evenodd" d="M57.6401 146.53L79.8001 124.37H142.79L120.63 146.53H57.6401Z" fill="#1A337F"/>
    <path fill-rule="evenodd" clip-rule="evenodd" d="M36.2104 167.96L58.3704 145.8H121.36L99.2004 167.96H36.2104Z" fill="#0F225E"/>
    <path fill-rule="evenodd" clip-rule="evenodd" d="M14.7002 189.47L36.8702 167.3H99.8502L77.6902 189.47H14.7002Z" fill="#152D77"/>
    <path fill-rule="evenodd" clip-rule="evenodd" d="M-6.57959 210.75L15.5804 188.59H78.5604L56.4004 210.75H-6.57959Z" fill="#0F225E"/>
    <path fill-rule="evenodd" clip-rule="evenodd" d="M-27.5098 231.68L-5.33977 209.521H57.6402L35.4802 231.68H-27.5098Z" fill="#1A337F"/>
    <path fill-rule="evenodd" clip-rule="evenodd" d="M205.701 124.44L227.861 102.28V39.29L205.701 61.45V124.44Z" fill="#0F225E"/>
    <path fill-rule="evenodd" clip-rule="evenodd" d="M184.71 145.44L206.87 123.27V60.29L184.71 82.45V145.44Z" fill="#2C468F"/>
    <path fill-rule="evenodd" clip-rule="evenodd" d="M163.271 166.87L185.441 144.71V81.7197L163.271 103.88V166.87Z" fill="#0F225E"/>
    <path fill-rule="evenodd" clip-rule="evenodd" d="M141.621 188.52L163.791 166.36V103.37L141.621 125.53V188.52Z" fill="#2C468F"/>
    <path fill-rule="evenodd" clip-rule="evenodd" d="M120.63 209.52L142.79 187.35V124.37L120.63 146.53V209.52Z" fill="#1A337F"/>
    <path fill-rule="evenodd" clip-rule="evenodd" d="M99.2007 230.95L121.361 208.78V145.8L99.2007 167.96V230.95Z" fill="#0F225E"/>
    <path fill-rule="evenodd" clip-rule="evenodd" d="M77.6904 252.45L99.8504 230.29V167.3L77.6904 189.47V252.45Z" fill="#1A337F"/>
    <path fill-rule="evenodd" clip-rule="evenodd" d="M56.4004 273.74L78.5604 251.58V188.59L56.4004 210.75V273.74Z" fill="#0F225E"/>
    <path fill-rule="evenodd" clip-rule="evenodd" d="M35.4805 294.661L57.6405 272.501V209.521L35.4805 231.68V294.661Z" fill="#1A337F"/>
    <path fill-rule="evenodd" clip-rule="evenodd" d="M268.69 187.43L290.85 165.26V102.28L268.69 124.44V187.43Z" fill="#0F225E"/>
    <path fill-rule="evenodd" clip-rule="evenodd" d="M247.69 208.421L269.86 186.26V123.271L247.69 145.441V208.421Z" fill="#2C468F"/>
    <path fill-rule="evenodd" clip-rule="evenodd" d="M226.261 229.85L248.421 207.69V144.71L226.261 166.87V229.85Z" fill="#0F225E"/>
    <path fill-rule="evenodd" clip-rule="evenodd" d="M204.611 251.51L226.771 229.34V166.36L204.611 188.52V251.51Z" fill="#2C468F"/>
    <path fill-rule="evenodd" clip-rule="evenodd" d="M183.611 272.501L205.781 250.341V187.351L183.611 209.521V272.501Z" fill="#1A337F"/>
    <path fill-rule="evenodd" clip-rule="evenodd" d="M162.181 293.93L184.341 271.77V208.78L162.181 230.95V293.93Z" fill="#0F225E"/>
    <path fill-rule="evenodd" clip-rule="evenodd" d="M205.7 124.44L227.86 102.28H290.85L268.69 124.44H205.7Z" fill="#0F225E"/>
    <path fill-rule="evenodd" clip-rule="evenodd" d="M184.71 145.441L206.87 123.271H269.86L247.69 145.441H184.71Z" fill="#2C468F"/>
    <path fill-rule="evenodd" clip-rule="evenodd" d="M163.271 166.87L185.441 144.71H248.421L226.26 166.87H163.271Z" fill="#0F225E"/>
    <path fill-rule="evenodd" clip-rule="evenodd" d="M141.621 188.52L163.791 166.36H226.771L204.611 188.52H141.621Z" fill="#2C468F"/>
    <path fill-rule="evenodd" clip-rule="evenodd" d="M120.63 209.521L142.79 187.351H205.78L183.61 209.521H120.63Z" fill="#1A337F"/>
    <path fill-rule="evenodd" clip-rule="evenodd" d="M99.2002 230.95L121.36 208.78H184.34L162.18 230.95H99.2002Z" fill="#0F225E"/>
    <path fill-rule="evenodd" clip-rule="evenodd" d="M268.69 187.431L290.85 165.261H353.84L331.68 187.431H268.69Z" fill="#0F225E"/>
    <path fill-rule="evenodd" clip-rule="evenodd" d="M247.69 208.421L269.86 186.261H332.84L310.68 208.421H247.69Z" fill="#2C468F"/>
    <path fill-rule="evenodd" clip-rule="evenodd" d="M226.26 229.85L248.42 207.69H311.41L289.25 229.85H226.26Z" fill="#0F225E"/>
    <path fill-rule="evenodd" clip-rule="evenodd" d="M331.681 250.411L353.841 228.251V165.261L331.681 187.431V250.411Z" fill="#0F225E"/>
    <path fill-rule="evenodd" clip-rule="evenodd" d="M310.681 271.411L332.841 249.241V186.261L310.681 208.421V271.411Z" fill="#2C468F"/>
    <path fill-rule="evenodd" clip-rule="evenodd" d="M289.25 292.84L311.41 270.68V207.69L289.25 229.85V292.84Z" fill="#0F225E"/>
    <path fill-rule="evenodd" clip-rule="evenodd" d="M122.59 19.1402L144.76 -3.01977V-66.0098L122.59 -43.8498V19.1402Z" fill="#0F225E"/>
    <path fill-rule="evenodd" clip-rule="evenodd" d="M101.67 40.0602L123.83 17.9002V-45.0898L101.67 -22.9298V40.0602Z" fill="#1A337F"/>
    <path fill-rule="evenodd" clip-rule="evenodd" d="M249.81 17.9L271.97 -4.26V-67.25L249.81 -45.09V17.9Z" fill="#1A337F"/>
    <path fill-rule="evenodd" clip-rule="evenodd" d="M228.37 39.3297L250.53 17.1697V-45.8203L228.37 -23.6603V39.3297Z" fill="#0F225E"/>
    <path fill-rule="evenodd" clip-rule="evenodd" d="M206.87 60.8404L229.03 38.6804V-24.3096L206.87 -2.14957V60.8404Z" fill="#152D77"/>
    <path fill-rule="evenodd" clip-rule="evenodd" d="M185.58 82.1205L207.74 59.9605V-3.01953L185.58 19.1405V82.1205Z" fill="#0F225E"/>
    <path fill-rule="evenodd" clip-rule="evenodd" d="M164.66 103.05L186.82 80.8804V17.9004L164.66 40.0604V103.05Z" fill="#1A337F"/>
    <path fill-rule="evenodd" clip-rule="evenodd" d="M122.59 19.1405L144.76 -3.01953H207.74L185.58 19.1405H122.59Z" fill="#0F225E"/>
    <path fill-rule="evenodd" clip-rule="evenodd" d="M101.67 40.0604L123.83 17.9004H186.82L164.66 40.0604H101.67Z" fill="#1A337F"/>
    <path fill-rule="evenodd" clip-rule="evenodd" d="M249.81 17.9002L271.97 -4.25977H334.95L312.79 17.9002H249.81Z" fill="#1A337F"/>
    <path fill-rule="evenodd" clip-rule="evenodd" d="M228.37 39.3299L250.53 17.1699H313.52L291.36 39.3299H228.37Z" fill="#0F225E"/>
    <path fill-rule="evenodd" clip-rule="evenodd" d="M206.87 60.8407L229.03 38.6807H292.01L269.85 60.8407H206.87Z" fill="#152D77"/>
    <path fill-rule="evenodd" clip-rule="evenodd" d="M185.58 82.12L207.74 59.96H270.73L248.57 82.12H185.58Z" fill="#0F225E"/>
    <path fill-rule="evenodd" clip-rule="evenodd" d="M164.66 103.05L186.82 80.8799H249.81L227.64 103.05H164.66Z" fill="#1A337F"/>
    <path fill-rule="evenodd" clip-rule="evenodd" d="M376.87 16.8002L399.03 -5.35984V-68.3398L376.87 -46.1798V16.8002Z" fill="#2C468F"/>
    <path fill-rule="evenodd" clip-rule="evenodd" d="M355.44 38.2398L377.6 16.0698V-46.9102L355.44 -24.7502V38.2398Z" fill="#0F225E"/>
    <path fill-rule="evenodd" clip-rule="evenodd" d="M333.79 59.8902L355.95 37.7302V-25.2598L333.79 -3.09977V59.8902Z" fill="#2C468F"/>
    <path fill-rule="evenodd" clip-rule="evenodd" d="M312.79 80.8802L334.95 58.7202V-4.25977L312.79 17.9002V80.8802Z" fill="#1A337F"/>
    <path fill-rule="evenodd" clip-rule="evenodd" d="M291.36 102.32L313.52 80.1499V17.1699L291.36 39.3299V102.32Z" fill="#0F225E"/>
    <path fill-rule="evenodd" clip-rule="evenodd" d="M269.85 123.82L292.01 101.66V38.6797L269.85 60.8397V123.82Z" fill="#152D77"/>
    <path fill-rule="evenodd" clip-rule="evenodd" d="M248.57 145.11L270.73 122.95V59.96L248.57 82.12V145.11Z" fill="#0F225E"/>
    <path fill-rule="evenodd" clip-rule="evenodd" d="M227.64 166.03L249.81 143.87V80.8799L227.64 103.05V166.03Z" fill="#1A337F"/>
    <path fill-rule="evenodd" clip-rule="evenodd" d="M375.78 143.871L397.94 121.711V58.7207L375.78 80.8807V143.871Z" fill="#1A337F"/>
    <path fill-rule="evenodd" clip-rule="evenodd" d="M354.351 165.3L376.511 143.14V80.1504L354.351 102.32V165.3Z" fill="#0F225E"/>
    <path fill-rule="evenodd" clip-rule="evenodd" d="M332.84 186.81L355 164.65V101.66L332.84 123.82V186.81Z" fill="#152D77"/>
    <path fill-rule="evenodd" clip-rule="evenodd" d="M311.55 208.1L333.71 185.93V122.95L311.55 145.11V208.1Z" fill="#0F225E"/>
    <path fill-rule="evenodd" clip-rule="evenodd" d="M290.63 229.02L312.79 206.86V143.87L290.63 166.03V229.02Z" fill="#1A337F"/>
    <path fill-rule="evenodd" clip-rule="evenodd" d="M376.87 16.8006L399.03 -5.35938H462.02L439.86 16.8006H376.87Z" fill="#2C468F"/>
    <path fill-rule="evenodd" clip-rule="evenodd" d="M355.44 38.2403L377.6 16.0703H440.59L418.43 38.2403H355.44Z" fill="#0F225E"/>
    <path fill-rule="evenodd" clip-rule="evenodd" d="M333.79 59.8905L355.95 37.7305H418.94L396.77 59.8905H333.79Z" fill="#2C468F"/>
    <path fill-rule="evenodd" clip-rule="evenodd" d="M312.79 80.8807L334.95 58.7207H397.94L375.78 80.8807H312.79Z" fill="#1A337F"/>
    <path fill-rule="evenodd" clip-rule="evenodd" d="M291.36 102.32L313.52 80.1504H376.51L354.35 102.32H291.36Z" fill="#0F225E"/>
    <path fill-rule="evenodd" clip-rule="evenodd" d="M269.85 123.82L292.01 101.66H355L332.84 123.82H269.85Z" fill="#152D77"/>
    <path fill-rule="evenodd" clip-rule="evenodd" d="M248.57 145.11L270.73 122.95H333.71L311.55 145.11H248.57Z" fill="#0F225E"/>
    <path fill-rule="evenodd" clip-rule="evenodd" d="M227.64 166.03L249.81 143.87H312.79L290.63 166.03H227.64Z" fill="#1A337F"/>
    <path fill-rule="evenodd" clip-rule="evenodd" d="M375.78 143.87L397.94 121.71H460.93L438.76 143.87H375.78Z" fill="#1A337F"/>
    <path fill-rule="evenodd" clip-rule="evenodd" d="M354.35 165.3L376.51 143.14H439.49L417.33 165.3H354.35Z" fill="#0F225E"/>
    <path fill-rule="evenodd" clip-rule="evenodd" d="M332.84 186.81L355 164.65H417.99L395.83 186.81H332.84Z" fill="#152D77"/>
    <path fill-rule="evenodd" clip-rule="evenodd" d="M311.55 208.1L333.71 185.93H396.7L374.54 208.1H311.55Z" fill="#0F225E"/>
    <path fill-rule="evenodd" clip-rule="evenodd" d="M290.63 229.02L312.79 206.86H375.78L353.62 229.02H290.63Z" fill="#1A337F"/>
    <path fill-rule="evenodd" clip-rule="evenodd" d="M374.54 271.081L396.7 248.921V185.931L374.54 208.101V271.081Z" fill="#0F225E"/>
    <path fill-rule="evenodd" clip-rule="evenodd" d="M353.62 292L375.78 269.84V206.86L353.62 229.02V292Z" fill="#1A337F"/>
    <path fill-rule="evenodd" clip-rule="evenodd" d="M122.59 19.1402L144.76 -3.01977V-66.0098L122.59 -43.8498V19.1402Z" fill="#0F225E"/>
    <path fill-rule="evenodd" clip-rule="evenodd" d="M101.67 40.0602L123.83 17.9002V-45.0898L101.67 -22.9298V40.0602Z" fill="#1A337F"/>
    <path fill-rule="evenodd" clip-rule="evenodd" d="M249.81 17.9L271.97 -4.26V-67.25L249.81 -45.09V17.9Z" fill="#1A337F"/>
    <path fill-rule="evenodd" clip-rule="evenodd" d="M228.37 39.3297L250.53 17.1697V-45.8203L228.37 -23.6603V39.3297Z" fill="#2C468F"/>
    <path fill-rule="evenodd" clip-rule="evenodd" d="M206.87 60.8404L229.03 38.6804V-24.3096L206.87 -2.14957V60.8404Z" fill="#152D77"/>
    <path fill-rule="evenodd" clip-rule="evenodd" d="M185.58 82.1205L207.74 59.9605V-3.01953L185.58 19.1405V82.1205Z" fill="#0F225E"/>
    <path fill-rule="evenodd" clip-rule="evenodd" d="M164.66 103.05L186.82 80.8804V17.9004L164.66 40.0604V103.05Z" fill="#2C468F"/>
    <path fill-rule="evenodd" clip-rule="evenodd" d="M122.59 19.1405L144.76 -3.01953H207.74L185.58 19.1405H122.59Z" fill="#0F225E"/>
    <path fill-rule="evenodd" clip-rule="evenodd" d="M101.67 40.0604L123.83 17.9004H186.82L164.66 40.0604H101.67Z" fill="#1A337F"/>
    <path fill-rule="evenodd" clip-rule="evenodd" d="M249.81 17.9002L271.97 -4.25977H334.95L312.79 17.9002H249.81Z" fill="#1A337F"/>
    <path fill-rule="evenodd" clip-rule="evenodd" d="M228.37 39.3299L250.53 17.1699H313.52L291.36 39.3299H228.37Z" fill="#0F225E"/>
    <path fill-rule="evenodd" clip-rule="evenodd" d="M206.87 60.8407L229.03 38.6807H292.01L269.85 60.8407H206.87Z" fill="#152D77"/>
    <path fill-rule="evenodd" clip-rule="evenodd" d="M185.58 82.12L207.74 59.96H270.73L248.57 82.12H185.58Z" fill="#0F225E"/>
    <path fill-rule="evenodd" clip-rule="evenodd" d="M164.66 103.05L186.82 80.8799H249.81L227.64 103.05H164.66Z" fill="#1A337F"/>
    <path fill-rule="evenodd" clip-rule="evenodd" d="M376.87 16.8002L399.03 -5.35984V-68.3398L376.87 -46.1798V16.8002Z" fill="#2C468F"/>
    <path fill-rule="evenodd" clip-rule="evenodd" d="M355.44 38.2398L377.6 16.0698V-46.9102L355.44 -24.7502V38.2398Z" fill="#0F225E"/>
    <path fill-rule="evenodd" clip-rule="evenodd" d="M333.79 59.8902L355.95 37.7302V-25.2598L333.79 -3.09977V59.8902Z" fill="#2C468F"/>
    <path fill-rule="evenodd" clip-rule="evenodd" d="M312.79 80.8802L334.95 58.7202V-4.25977L312.79 17.9002V80.8802Z" fill="#1A337F"/>
    <path fill-rule="evenodd" clip-rule="evenodd" d="M291.36 102.32L313.52 80.1499V17.1699L291.36 39.3299V102.32Z" fill="#0F225E"/>
    <path fill-rule="evenodd" clip-rule="evenodd" d="M269.85 123.82L292.01 101.66V38.6797L269.85 60.8397V123.82Z" fill="#1A337F"/>
    <path fill-rule="evenodd" clip-rule="evenodd" d="M248.57 145.11L270.73 122.95V59.96L248.57 82.12V145.11Z" fill="#0F225E"/>
    <path fill-rule="evenodd" clip-rule="evenodd" d="M227.64 166.03L249.81 143.87V80.8799L227.64 103.05V166.03Z" fill="#1A337F"/>
    <path fill-rule="evenodd" clip-rule="evenodd" d="M375.78 143.871L397.94 121.711V58.7207L375.78 80.8807V143.871Z" fill="#1A337F"/>
    <path fill-rule="evenodd" clip-rule="evenodd" d="M354.351 165.3L376.511 143.14V80.1504L354.351 102.32V165.3Z" fill="#0F225E"/>
    <path fill-rule="evenodd" clip-rule="evenodd" d="M332.84 186.81L355 164.65V101.66L332.84 123.82V186.81Z" fill="#152D77"/>
    <path fill-rule="evenodd" clip-rule="evenodd" d="M311.55 208.1L333.71 185.93V122.95L311.55 145.11V208.1Z" fill="#0F225E"/>
    <path fill-rule="evenodd" clip-rule="evenodd" d="M290.63 229.02L312.79 206.86V143.87L290.63 166.03V229.02Z" fill="#1A337F"/>
    <path fill-rule="evenodd" clip-rule="evenodd" d="M376.87 16.8006L399.03 -5.35938H462.02L439.86 16.8006H376.87Z" fill="#2C468F"/>
    <path fill-rule="evenodd" clip-rule="evenodd" d="M355.44 38.2403L377.6 16.0703H440.59L418.43 38.2403H355.44Z" fill="#0F225E"/>
    <path fill-rule="evenodd" clip-rule="evenodd" d="M333.79 59.8905L355.95 37.7305H418.94L396.77 59.8905H333.79Z" fill="#2C468F"/>
    <path fill-rule="evenodd" clip-rule="evenodd" d="M312.79 80.8807L334.95 58.7207H397.94L375.78 80.8807H312.79Z" fill="#1A337F"/>
    <path fill-rule="evenodd" clip-rule="evenodd" d="M291.36 102.32L313.52 80.1504H376.51L354.35 102.32H291.36Z" fill="#0F225E"/>
    <path fill-rule="evenodd" clip-rule="evenodd" d="M269.85 123.82L292.01 101.66H355L332.84 123.82H269.85Z" fill="#152D77"/>
    <path fill-rule="evenodd" clip-rule="evenodd" d="M248.57 145.11L270.73 122.95H333.71L311.55 145.11H248.57Z" fill="#0F225E"/>
    <path fill-rule="evenodd" clip-rule="evenodd" d="M227.64 166.03L249.81 143.87H312.79L290.63 166.03H227.64Z" fill="#1A337F"/>
    <path fill-rule="evenodd" clip-rule="evenodd" d="M375.78 143.87L397.94 121.71H460.93L438.76 143.87H375.78Z" fill="#1A337F"/>
    <path fill-rule="evenodd" clip-rule="evenodd" d="M354.35 165.3L376.51 143.14H439.49L417.33 165.3H354.35Z" fill="#0F225E"/>
    <path fill-rule="evenodd" clip-rule="evenodd" d="M332.84 186.81L355 164.65H417.99L395.83 186.81H332.84Z" fill="#1A337F"/>
    <path fill-rule="evenodd" clip-rule="evenodd" d="M311.55 208.1L333.71 185.93H396.7L374.54 208.1H311.55Z" fill="#0F225E"/>
    <path fill-rule="evenodd" clip-rule="evenodd" d="M290.63 229.02L312.79 206.86H375.78L353.62 229.02H290.63Z" fill="#1A337F"/>
    <path fill-rule="evenodd" clip-rule="evenodd" d="M374.54 271.081L396.7 248.921V185.931L374.54 208.101V271.081Z" fill="#0F225E"/>
    <path fill-rule="evenodd" clip-rule="evenodd" d="M353.62 292L375.78 269.84V206.86L353.62 229.02V292Z" fill="#1A337F"/>
    <path fill-rule="evenodd" clip-rule="evenodd" d="M-68.3296 20.5606L-46.1696 -1.60938H16.8204L-5.33959 20.5606H-68.3296Z" fill="#1A337F"/>
    <path fill-rule="evenodd" clip-rule="evenodd" d="M58.7407 19.4603L80.9007 -2.69969V-65.6797L58.7407 -43.5197V19.4603Z" fill="#2C468F"/>
    <path fill-rule="evenodd" clip-rule="evenodd" d="M37.3008 40.9L59.4608 18.73V-44.25L37.3008 -22.09V40.9Z" fill="#0F225E"/>
    <path fill-rule="evenodd" clip-rule="evenodd" d="M15.6509 62.5504L37.8109 40.3804V-22.5996L15.6509 -0.43961V62.5504Z" fill="#2C468F"/>
    <path fill-rule="evenodd" clip-rule="evenodd" d="M-5.33936 83.5406L16.8206 61.3806V-1.60938L-5.33936 20.5606V83.5406Z" fill="#1A337F"/>
    <path fill-rule="evenodd" clip-rule="evenodd" d="M142.72 61.4505L164.88 39.2905V-23.6895L142.72 -1.52945V61.4505Z" fill="#0F225E"/>
    <path fill-rule="evenodd" clip-rule="evenodd" d="M121.72 82.4508L143.88 60.2908V-2.69922L121.72 19.4608V82.4508Z" fill="#2C468F"/>
    <path fill-rule="evenodd" clip-rule="evenodd" d="M100.291 103.88L122.451 81.7205V18.7305L100.291 40.9005V103.88Z" fill="#0F225E"/>
    <path fill-rule="evenodd" clip-rule="evenodd" d="M78.6406 125.531L100.801 103.371V40.3809L78.6406 62.5509V125.531Z" fill="#2C468F"/>
    <path fill-rule="evenodd" clip-rule="evenodd" d="M57.6406 146.531L79.8006 124.371V61.3809L57.6406 83.5409V146.531Z" fill="#1A337F"/>
    <path fill-rule="evenodd" clip-rule="evenodd" d="M36.2104 167.961L58.3704 145.801V82.8105L36.2104 104.981V167.961Z" fill="#0F225E"/>
    <path fill-rule="evenodd" clip-rule="evenodd" d="M14.7002 189.47L36.8702 167.3V104.32L14.7002 126.48V189.47Z" fill="#152D77"/>
    <path fill-rule="evenodd" clip-rule="evenodd" d="M-6.57959 210.75L15.5804 188.59V125.61L-6.57959 147.77V210.75Z" fill="#0F225E"/>
    <path fill-rule="evenodd" clip-rule="evenodd" d="M58.7402 19.4608L80.9002 -2.69922H143.88L121.72 19.4608H58.7402Z" fill="#2C468F"/>
    <path fill-rule="evenodd" clip-rule="evenodd" d="M37.3003 40.9005L59.4603 18.7305H122.45L100.29 40.9005H37.3003Z" fill="#0F225E"/>
    <path fill-rule="evenodd" clip-rule="evenodd" d="M15.6504 62.5509L37.8104 40.3809H100.8L78.6404 62.5509H15.6504Z" fill="#2C468F"/>
    <path fill-rule="evenodd" clip-rule="evenodd" d="M-5.33984 83.5409L16.8202 61.3809H79.8002L57.6402 83.5409H-5.33984Z" fill="#1A337F"/>
    <path fill-rule="evenodd" clip-rule="evenodd" d="M-26.7798 104.981L-4.61979 82.8105H58.3702L36.2102 104.981H-26.7798Z" fill="#0F225E"/>
    <path fill-rule="evenodd" clip-rule="evenodd" d="M-48.2798 126.48L-26.1198 104.32H36.8702L14.7002 126.48H-48.2798Z" fill="#152D77"/>
    <path fill-rule="evenodd" clip-rule="evenodd" d="M-69.5698 147.77L-47.4098 125.61H15.5802L-6.57983 147.77H-69.5698Z" fill="#0F225E"/>
    <path fill-rule="evenodd" clip-rule="evenodd" d="M142.72 61.45L164.88 39.29H227.86L205.7 61.45H142.72Z" fill="#0F225E"/>
    <path fill-rule="evenodd" clip-rule="evenodd" d="M121.72 82.45L143.88 60.29H206.87L184.71 82.45H121.72Z" fill="#2C468F"/>
    <path fill-rule="evenodd" clip-rule="evenodd" d="M100.29 103.88L122.45 81.7197H185.44L163.27 103.88H100.29Z" fill="#0F225E"/>
    <path fill-rule="evenodd" clip-rule="evenodd" d="M78.6401 125.53L100.8 103.37H163.79L141.62 125.53H78.6401Z" fill="#2C468F"/>
    <path fill-rule="evenodd" clip-rule="evenodd" d="M57.6401 146.53L79.8001 124.37H142.79L120.63 146.53H57.6401Z" fill="#1A337F"/>
    <path fill-rule="evenodd" clip-rule="evenodd" d="M36.2104 167.96L58.3704 145.8H121.36L99.2004 167.96H36.2104Z" fill="#0F225E"/>
    <path fill-rule="evenodd" clip-rule="evenodd" d="M14.7002 189.47L36.8702 167.3H99.8502L77.6902 189.47H14.7002Z" fill="#152D77"/>
    <path fill-rule="evenodd" clip-rule="evenodd" d="M-6.57959 210.75L15.5804 188.59H78.5604L56.4004 210.75H-6.57959Z" fill="#0F225E"/>
    <path fill-rule="evenodd" clip-rule="evenodd" d="M-27.5098 231.68L-5.33977 209.521H57.6402L35.4802 231.68H-27.5098Z" fill="#1A337F"/>
    <path fill-rule="evenodd" clip-rule="evenodd" d="M205.701 124.44L227.861 102.28V39.29L205.701 61.45V124.44Z" fill="#0F225E"/>
    <path fill-rule="evenodd" clip-rule="evenodd" d="M184.71 145.44L206.87 123.27V60.29L184.71 82.45V145.44Z" fill="#2C468F"/>
    <path fill-rule="evenodd" clip-rule="evenodd" d="M163.271 166.87L185.441 144.71V81.7197L163.271 103.88V166.87Z" fill="#0F225E"/>
    <path fill-rule="evenodd" clip-rule="evenodd" d="M141.621 188.52L163.791 166.36V103.37L141.621 125.53V188.52Z" fill="#2C468F"/>
    <path fill-rule="evenodd" clip-rule="evenodd" d="M120.63 209.52L142.79 187.35V124.37L120.63 146.53V209.52Z" fill="#1A337F"/>
    <path fill-rule="evenodd" clip-rule="evenodd" d="M99.2007 230.95L121.361 208.78V145.8L99.2007 167.96V230.95Z" fill="#0F225E"/>
    <path fill-rule="evenodd" clip-rule="evenodd" d="M77.6904 252.45L99.8504 230.29V167.3L77.6904 189.47V252.45Z" fill="#152D77"/>
    <path fill-rule="evenodd" clip-rule="evenodd" d="M56.4004 273.74L78.5604 251.58V188.59L56.4004 210.75V273.74Z" fill="#0F225E"/>
    <path fill-rule="evenodd" clip-rule="evenodd" d="M35.4805 294.661L57.6405 272.501V209.521L35.4805 231.68V294.661Z" fill="#1A337F"/>
    <path fill-rule="evenodd" clip-rule="evenodd" d="M268.69 187.43L290.85 165.26V102.28L268.69 124.44V187.43Z" fill="#0F225E"/>
    <path fill-rule="evenodd" clip-rule="evenodd" d="M247.69 208.421L269.86 186.26V123.271L247.69 145.441V208.421Z" fill="#2C468F"/>
    <path fill-rule="evenodd" clip-rule="evenodd" d="M226.261 229.85L248.421 207.69V144.71L226.261 166.87V229.85Z" fill="#0F225E"/>
    <path fill-rule="evenodd" clip-rule="evenodd" d="M204.611 251.51L226.771 229.34V166.36L204.611 188.52V251.51Z" fill="#2C468F"/>
    <path fill-rule="evenodd" clip-rule="evenodd" d="M183.611 272.501L205.781 250.341V187.351L183.611 209.521V272.501Z" fill="#1A337F"/>
    <path fill-rule="evenodd" clip-rule="evenodd" d="M162.181 293.93L184.341 271.77V208.78L162.181 230.95V293.93Z" fill="#0F225E"/>
    <path fill-rule="evenodd" clip-rule="evenodd" d="M205.7 124.44L227.86 102.28H290.85L268.69 124.44H205.7Z" fill="#0F225E"/>
    <path fill-rule="evenodd" clip-rule="evenodd" d="M184.71 145.441L206.87 123.271H269.86L247.69 145.441H184.71Z" fill="#2C468F"/>
    <path fill-rule="evenodd" clip-rule="evenodd" d="M163.271 166.87L185.441 144.71H248.421L226.26 166.87H163.271Z" fill="#0F225E"/>
    <path fill-rule="evenodd" clip-rule="evenodd" d="M141.621 188.52L163.791 166.36H226.771L204.611 188.52H141.621Z" fill="#2C468F"/>
    <path fill-rule="evenodd" clip-rule="evenodd" d="M120.63 209.521L142.79 187.351H205.78L183.61 209.521H120.63Z" fill="#1A337F"/>
    <path fill-rule="evenodd" clip-rule="evenodd" d="M99.2002 230.95L121.36 208.78H184.34L162.18 230.95H99.2002Z" fill="#0F225E"/>
    <path fill-rule="evenodd" clip-rule="evenodd" d="M268.69 187.431L290.85 165.261H353.84L331.68 187.431H268.69Z" fill="#0F225E"/>
    <path fill-rule="evenodd" clip-rule="evenodd" d="M247.69 208.421L269.86 186.261H332.84L310.68 208.421H247.69Z" fill="#2C468F"/>
    <path fill-rule="evenodd" clip-rule="evenodd" d="M226.26 229.85L248.42 207.69H311.41L289.25 229.85H226.26Z" fill="#0F225E"/>
    <path fill-rule="evenodd" clip-rule="evenodd" d="M331.681 250.411L353.841 228.251V165.261L331.681 187.431V250.411Z" fill="#0F225E"/>
    <path fill-rule="evenodd" clip-rule="evenodd" d="M310.681 271.411L332.841 249.241V186.261L310.681 208.421V271.411Z" fill="#2C468F"/>
    <path fill-rule="evenodd" clip-rule="evenodd" d="M289.25 292.84L311.41 270.68V207.69L289.25 229.85V292.84Z" fill="#0F225E"/>
    <path fill-rule="evenodd" clip-rule="evenodd" d="M-68.3296 20.5606L-46.1696 -1.60938H16.8204L-5.33959 20.5606H-68.3296Z" fill="#1A337F"/>
    <path fill-rule="evenodd" clip-rule="evenodd" d="M58.7407 19.4603L80.9007 -2.69969V-65.6797L58.7407 -43.5197V19.4603Z" fill="#2C468F"/>
    <path fill-rule="evenodd" clip-rule="evenodd" d="M37.3008 40.9L59.4608 18.73V-44.25L37.3008 -22.09V40.9Z" fill="#0F225E"/>
    <path fill-rule="evenodd" clip-rule="evenodd" d="M15.6509 62.5504L37.8109 40.3804V-22.5996L15.6509 -0.43961V62.5504Z" fill="#2C468F"/>
    <path fill-rule="evenodd" clip-rule="evenodd" d="M-5.33936 83.5406L16.8206 61.3806V-1.60938L-5.33936 20.5606V83.5406Z" fill="#1A337F"/>
    <path fill-rule="evenodd" clip-rule="evenodd" d="M142.72 61.4505L164.88 39.2905V-23.6895L142.72 -1.52945V61.4505Z" fill="#0F225E"/>
    <path fill-rule="evenodd" clip-rule="evenodd" d="M121.72 82.4508L143.88 60.2908V-2.69922L121.72 19.4608V82.4508Z" fill="#2C468F"/>
    <path fill-rule="evenodd" clip-rule="evenodd" d="M100.291 103.88L122.451 81.7205V18.7305L100.291 40.9005V103.88Z" fill="#0F225E"/>
    <path fill-rule="evenodd" clip-rule="evenodd" d="M78.6406 125.531L100.801 103.371V40.3809L78.6406 62.5509V125.531Z" fill="#2C468F"/>
    <path fill-rule="evenodd" clip-rule="evenodd" d="M57.6406 146.531L79.8006 124.371V61.3809L57.6406 83.5409V146.531Z" fill="#1A337F"/>
    <path fill-rule="evenodd" clip-rule="evenodd" d="M36.2104 167.961L58.3704 145.801V82.8105L36.2104 104.981V167.961Z" fill="#2C468F"/>
    <path fill-rule="evenodd" clip-rule="evenodd" d="M14.7002 189.47L36.8702 167.3V104.32L14.7002 126.48V189.47Z" fill="#152D77"/>
    <path fill-rule="evenodd" clip-rule="evenodd" d="M-6.57959 210.75L15.5804 188.59V125.61L-6.57959 147.77V210.75Z" fill="#0F225E"/>
    <path fill-rule="evenodd" clip-rule="evenodd" d="M58.7402 19.4608L80.9002 -2.69922H143.88L121.72 19.4608H58.7402Z" fill="#2C468F"/>
    <path fill-rule="evenodd" clip-rule="evenodd" d="M37.3003 40.9005L59.4603 18.7305H122.45L100.29 40.9005H37.3003Z" fill="#0F225E"/>
    <path fill-rule="evenodd" clip-rule="evenodd" d="M15.6504 62.5509L37.8104 40.3809H100.8L78.6404 62.5509H15.6504Z" fill="#2C468F"/>
    <path fill-rule="evenodd" clip-rule="evenodd" d="M-5.33984 83.5409L16.8202 61.3809H79.8002L57.6402 83.5409H-5.33984Z" fill="#1A337F"/>
    <path fill-rule="evenodd" clip-rule="evenodd" d="M-26.7798 104.981L-4.61979 82.8105H58.3702L36.2102 104.981H-26.7798Z" fill="#0F225E"/>
    <path fill-rule="evenodd" clip-rule="evenodd" d="M-48.2798 126.48L-26.1198 104.32H36.8702L14.7002 126.48H-48.2798Z" fill="#2C468F"/>
    <path fill-rule="evenodd" clip-rule="evenodd" d="M-69.5698 147.77L-47.4098 125.61H15.5802L-6.57983 147.77H-69.5698Z" fill="#0F225E"/>
    <path fill-rule="evenodd" clip-rule="evenodd" d="M142.72 61.45L164.88 39.29H227.86L205.7 61.45H142.72Z" fill="#0F225E"/>
    <path fill-rule="evenodd" clip-rule="evenodd" d="M121.72 82.45L143.88 60.29H206.87L184.71 82.45H121.72Z" fill="#2C468F"/>
    <path fill-rule="evenodd" clip-rule="evenodd" d="M100.29 103.88L122.45 81.7197H185.44L163.27 103.88H100.29Z" fill="#0F225E"/>
    <path fill-rule="evenodd" clip-rule="evenodd" d="M78.6401 125.53L100.8 103.37H163.79L141.62 125.53H78.6401Z" fill="#2C468F"/>
    <path fill-rule="evenodd" clip-rule="evenodd" d="M57.6401 146.53L79.8001 124.37H142.79L120.63 146.53H57.6401Z" fill="#1A337F"/>
    <path fill-rule="evenodd" clip-rule="evenodd" d="M36.2104 167.96L58.3704 145.8H121.36L99.2004 167.96H36.2104Z" fill="#0F225E"/>
    <path fill-rule="evenodd" clip-rule="evenodd" d="M14.7002 189.47L36.8702 167.3H99.8502L77.6902 189.47H14.7002Z" fill="#152D77"/>
    <path fill-rule="evenodd" clip-rule="evenodd" d="M-6.57959 210.75L15.5804 188.59H78.5604L56.4004 210.75H-6.57959Z" fill="#0F225E"/>
    <path fill-rule="evenodd" clip-rule="evenodd" d="M-27.5098 231.68L-5.33977 209.521H57.6402L35.4802 231.68H-27.5098Z" fill="#1A337F"/>
    <path fill-rule="evenodd" clip-rule="evenodd" d="M205.701 124.44L227.861 102.28V39.29L205.701 61.45V124.44Z" fill="#0F225E"/>
    <path fill-rule="evenodd" clip-rule="evenodd" d="M184.71 145.44L206.87 123.27V60.29L184.71 82.45V145.44Z" fill="#2C468F"/>
    <path fill-rule="evenodd" clip-rule="evenodd" d="M163.271 166.87L185.441 144.71V81.7197L163.271 103.88V166.87Z" fill="#0F225E"/>
    <path fill-rule="evenodd" clip-rule="evenodd" d="M141.621 188.52L163.791 166.36V103.37L141.621 125.53V188.52Z" fill="#2C468F"/>
    <path fill-rule="evenodd" clip-rule="evenodd" d="M120.63 209.52L142.79 187.35V124.37L120.63 146.53V209.52Z" fill="#1A337F"/>
    <path fill-rule="evenodd" clip-rule="evenodd" d="M99.2007 230.95L121.361 208.78V145.8L99.2007 167.96V230.95Z" fill="#0F225E"/>
    <path fill-rule="evenodd" clip-rule="evenodd" d="M77.6904 252.45L99.8504 230.29V167.3L77.6904 189.47V252.45Z" fill="#1A337F"/>
    <path fill-rule="evenodd" clip-rule="evenodd" d="M56.4004 273.74L78.5604 251.58V188.59L56.4004 210.75V273.74Z" fill="#0F225E"/>
    <path fill-rule="evenodd" clip-rule="evenodd" d="M35.4805 294.661L57.6405 272.501V209.521L35.4805 231.68V294.661Z" fill="#1A337F"/>
    <path fill-rule="evenodd" clip-rule="evenodd" d="M268.69 187.43L290.85 165.26V102.28L268.69 124.44V187.43Z" fill="#0F225E"/>
    <path fill-rule="evenodd" clip-rule="evenodd" d="M247.69 208.421L269.86 186.26V123.271L247.69 145.441V208.421Z" fill="#2C468F"/>
    <path fill-rule="evenodd" clip-rule="evenodd" d="M226.261 229.85L248.421 207.69V144.71L226.261 166.87V229.85Z" fill="#0F225E"/>
    <path fill-rule="evenodd" clip-rule="evenodd" d="M204.611 251.51L226.771 229.34V166.36L204.611 188.52V251.51Z" fill="#2C468F"/>
    <path fill-rule="evenodd" clip-rule="evenodd" d="M183.611 272.501L205.781 250.341V187.351L183.611 209.521V272.501Z" fill="#1A337F"/>
    <path fill-rule="evenodd" clip-rule="evenodd" d="M162.181 293.93L184.341 271.77V208.78L162.181 230.95V293.93Z" fill="#0F225E"/>
    <path fill-rule="evenodd" clip-rule="evenodd" d="M205.7 124.44L227.86 102.28H290.85L268.69 124.44H205.7Z" fill="#0F225E"/>
    <path fill-rule="evenodd" clip-rule="evenodd" d="M184.71 145.441L206.87 123.271H269.86L247.69 145.441H184.71Z" fill="#2C468F"/>
    <path fill-rule="evenodd" clip-rule="evenodd" d="M163.271 166.87L185.441 144.71H248.421L226.26 166.87H163.271Z" fill="#0F225E"/>
    <path fill-rule="evenodd" clip-rule="evenodd" d="M141.621 188.52L163.791 166.36H226.771L204.611 188.52H141.621Z" fill="#2C468F"/>
    <path fill-rule="evenodd" clip-rule="evenodd" d="M120.63 209.521L142.79 187.351H205.78L183.61 209.521H120.63Z" fill="#1A337F"/>
    <path fill-rule="evenodd" clip-rule="evenodd" d="M99.2002 230.95L121.36 208.78H184.34L162.18 230.95H99.2002Z" fill="#0F225E"/>
    <path fill-rule="evenodd" clip-rule="evenodd" d="M268.69 187.431L290.85 165.261H353.84L331.68 187.431H268.69Z" fill="#0F225E"/>
    <path fill-rule="evenodd" clip-rule="evenodd" d="M247.69 208.421L269.86 186.261H332.84L310.68 208.421H247.69Z" fill="#2C468F"/>
    <path fill-rule="evenodd" clip-rule="evenodd" d="M226.26 229.85L248.42 207.69H311.41L289.25 229.85H226.26Z" fill="#0F225E"/>
    <path fill-rule="evenodd" clip-rule="evenodd" d="M331.681 250.411L353.841 228.251V165.261L331.681 187.431V250.411Z" fill="#0F225E"/>
    <path fill-rule="evenodd" clip-rule="evenodd" d="M310.681 271.411L332.841 249.241V186.261L310.681 208.421V271.411Z" fill="#2C468F"/>
    <path fill-rule="evenodd" clip-rule="evenodd" d="M289.25 292.84L311.41 270.68V207.69L289.25 229.85V292.84Z" fill="#0F225E"/>
    <path fill-rule="evenodd" clip-rule="evenodd" d="M122.59 19.1402L144.76 -3.01977V-66.0098L122.59 -43.8498V19.1402Z" fill="#0F225E"/>
    <path fill-rule="evenodd" clip-rule="evenodd" d="M101.67 40.0602L123.83 17.9002V-45.0898L101.67 -22.9298V40.0602Z" fill="#1A337F"/>
    <path fill-rule="evenodd" clip-rule="evenodd" d="M249.81 17.9L271.97 -4.26V-67.25L249.81 -45.09V17.9Z" fill="#1A337F"/>
    <path fill-rule="evenodd" clip-rule="evenodd" d="M228.37 39.3297L250.53 17.1697V-45.8203L228.37 -23.6603V39.3297Z" fill="#0F225E"/>
    <path fill-rule="evenodd" clip-rule="evenodd" d="M206.87 60.8404L229.03 38.6804V-24.3096L206.87 -2.14957V60.8404Z" fill="#152D77"/>
    <path fill-rule="evenodd" clip-rule="evenodd" d="M185.58 82.1205L207.74 59.9605V-3.01953L185.58 19.1405V82.1205Z" fill="#0F225E"/>
    <path fill-rule="evenodd" clip-rule="evenodd" d="M164.66 103.05L186.82 80.8804V17.9004L164.66 40.0604V103.05Z" fill="#1A337F"/>
    <path fill-rule="evenodd" clip-rule="evenodd" d="M122.59 19.1405L144.76 -3.01953H207.74L185.58 19.1405H122.59Z" fill="#0F225E"/>
    <path fill-rule="evenodd" clip-rule="evenodd" d="M101.67 40.0604L123.83 17.9004H186.82L164.66 40.0604H101.67Z" fill="#1A337F"/>
    <path fill-rule="evenodd" clip-rule="evenodd" d="M249.81 17.9002L271.97 -4.25977H334.95L312.79 17.9002H249.81Z" fill="#1A337F"/>
    <path fill-rule="evenodd" clip-rule="evenodd" d="M228.37 39.3299L250.53 17.1699H313.52L291.36 39.3299H228.37Z" fill="#0F225E"/>
    <path fill-rule="evenodd" clip-rule="evenodd" d="M206.87 60.8407L229.03 38.6807H292.01L269.85 60.8407H206.87Z" fill="#152D77"/>
    <path fill-rule="evenodd" clip-rule="evenodd" d="M185.58 82.12L207.74 59.96H270.73L248.57 82.12H185.58Z" fill="#0F225E"/>
    <path fill-rule="evenodd" clip-rule="evenodd" d="M164.66 103.05L186.82 80.8799H249.81L227.64 103.05H164.66Z" fill="#1A337F"/>
    <path fill-rule="evenodd" clip-rule="evenodd" d="M376.87 16.8002L399.03 -5.35984V-68.3398L376.87 -46.1798V16.8002Z" fill="#2C468F"/>
    <path fill-rule="evenodd" clip-rule="evenodd" d="M355.44 38.2398L377.6 16.0698V-46.9102L355.44 -24.7502V38.2398Z" fill="#0F225E"/>
    <path fill-rule="evenodd" clip-rule="evenodd" d="M333.79 59.8902L355.95 37.7302V-25.2598L333.79 -3.09977V59.8902Z" fill="#2C468F"/>
    <path fill-rule="evenodd" clip-rule="evenodd" d="M312.79 80.8802L334.95 58.7202V-4.25977L312.79 17.9002V80.8802Z" fill="#1A337F"/>
    <path fill-rule="evenodd" clip-rule="evenodd" d="M291.36 102.32L313.52 80.1499V17.1699L291.36 39.3299V102.32Z" fill="#0F225E"/>
    <path fill-rule="evenodd" clip-rule="evenodd" d="M269.85 123.82L292.01 101.66V38.6797L269.85 60.8397V123.82Z" fill="#152D77"/>
    <path fill-rule="evenodd" clip-rule="evenodd" d="M248.57 145.11L270.73 122.95V59.96L248.57 82.12V145.11Z" fill="#0F225E"/>
    <path fill-rule="evenodd" clip-rule="evenodd" d="M227.64 166.03L249.81 143.87V80.8799L227.64 103.05V166.03Z" fill="#1A337F"/>
    <path fill-rule="evenodd" clip-rule="evenodd" d="M375.78 143.871L397.94 121.711V58.7207L375.78 80.8807V143.871Z" fill="#1A337F"/>
    <path fill-rule="evenodd" clip-rule="evenodd" d="M354.351 165.3L376.511 143.14V80.1504L354.351 102.32V165.3Z" fill="#0F225E"/>
    <path fill-rule="evenodd" clip-rule="evenodd" d="M332.84 186.81L355 164.65V101.66L332.84 123.82V186.81Z" fill="#152D77"/>
    <path fill-rule="evenodd" clip-rule="evenodd" d="M311.55 208.1L333.71 185.93V122.95L311.55 145.11V208.1Z" fill="#0F225E"/>
    <path fill-rule="evenodd" clip-rule="evenodd" d="M290.63 229.02L312.79 206.86V143.87L290.63 166.03V229.02Z" fill="#1A337F"/>
    <path fill-rule="evenodd" clip-rule="evenodd" d="M376.87 16.8006L399.03 -5.35938H462.02L439.86 16.8006H376.87Z" fill="#2C468F"/>
    <path fill-rule="evenodd" clip-rule="evenodd" d="M355.44 38.2403L377.6 16.0703H440.59L418.43 38.2403H355.44Z" fill="#0F225E"/>
    <path fill-rule="evenodd" clip-rule="evenodd" d="M333.79 59.8905L355.95 37.7305H418.94L396.77 59.8905H333.79Z" fill="#2C468F"/>
    <path fill-rule="evenodd" clip-rule="evenodd" d="M312.79 80.8807L334.95 58.7207H397.94L375.78 80.8807H312.79Z" fill="#1A337F"/>
    <path fill-rule="evenodd" clip-rule="evenodd" d="M291.36 102.32L313.52 80.1504H376.51L354.35 102.32H291.36Z" fill="#0F225E"/>
    <path fill-rule="evenodd" clip-rule="evenodd" d="M269.85 123.82L292.01 101.66H355L332.84 123.82H269.85Z" fill="#152D77"/>
    <path fill-rule="evenodd" clip-rule="evenodd" d="M248.57 145.11L270.73 122.95H333.71L311.55 145.11H248.57Z" fill="#0F225E"/>
    <path fill-rule="evenodd" clip-rule="evenodd" d="M227.64 166.03L249.81 143.87H312.79L290.63 166.03H227.64Z" fill="#1A337F"/>
    <path fill-rule="evenodd" clip-rule="evenodd" d="M375.78 143.87L397.94 121.71H460.93L438.76 143.87H375.78Z" fill="#1A337F"/>
    <path fill-rule="evenodd" clip-rule="evenodd" d="M354.35 165.3L376.51 143.14H439.49L417.33 165.3H354.35Z" fill="#0F225E"/>
    <path fill-rule="evenodd" clip-rule="evenodd" d="M332.84 186.81L355 164.65H417.99L395.83 186.81H332.84Z" fill="#152D77"/>
    <path fill-rule="evenodd" clip-rule="evenodd" d="M311.55 208.1L333.71 185.93H396.7L374.54 208.1H311.55Z" fill="#0F225E"/>
    <path fill-rule="evenodd" clip-rule="evenodd" d="M290.63 229.02L312.79 206.86H375.78L353.62 229.02H290.63Z" fill="#1A337F"/>
    <path fill-rule="evenodd" clip-rule="evenodd" d="M374.54 271.081L396.7 248.921V185.931L374.54 208.101V271.081Z" fill="#0F225E"/>
    <path fill-rule="evenodd" clip-rule="evenodd" d="M353.62 292L375.78 269.84V206.86L353.62 229.02V292Z" fill="#1A337F"/>
    <path fill-rule="evenodd" clip-rule="evenodd" d="M122.59 19.1402L144.76 -3.01977V-66.0098L122.59 -43.8498V19.1402Z" fill="#0F225E"/>
    <path fill-rule="evenodd" clip-rule="evenodd" d="M101.67 40.0602L123.83 17.9002V-45.0898L101.67 -22.9298V40.0602Z" fill="#1A337F"/>
    <path fill-rule="evenodd" clip-rule="evenodd" d="M249.81 17.9L271.97 -4.26V-67.25L249.81 -45.09V17.9Z" fill="#1A337F"/>
    <path fill-rule="evenodd" clip-rule="evenodd" d="M228.37 39.3297L250.53 17.1697V-45.8203L228.37 -23.6603V39.3297Z" fill="#2C468F"/>
    <path fill-rule="evenodd" clip-rule="evenodd" d="M206.87 60.8404L229.03 38.6804V-24.3096L206.87 -2.14957V60.8404Z" fill="#152D77"/>
    <path fill-rule="evenodd" clip-rule="evenodd" d="M185.58 82.1205L207.74 59.9605V-3.01953L185.58 19.1405V82.1205Z" fill="#0F225E"/>
    <path fill-rule="evenodd" clip-rule="evenodd" d="M164.66 103.05L186.82 80.8804V17.9004L164.66 40.0604V103.05Z" fill="#2C468F"/>
    <path fill-rule="evenodd" clip-rule="evenodd" d="M122.59 19.1405L144.76 -3.01953H207.74L185.58 19.1405H122.59Z" fill="#0F225E"/>
    <path fill-rule="evenodd" clip-rule="evenodd" d="M101.67 40.0604L123.83 17.9004H186.82L164.66 40.0604H101.67Z" fill="#1A337F"/>
    <path fill-rule="evenodd" clip-rule="evenodd" d="M249.81 17.9002L271.97 -4.25977H334.95L312.79 17.9002H249.81Z" fill="#1A337F"/>
    <path fill-rule="evenodd" clip-rule="evenodd" d="M228.37 39.3299L250.53 17.1699H313.52L291.36 39.3299H228.37Z" fill="#0F225E"/>
    <path fill-rule="evenodd" clip-rule="evenodd" d="M206.87 60.8407L229.03 38.6807H292.01L269.85 60.8407H206.87Z" fill="#152D77"/>
    <path fill-rule="evenodd" clip-rule="evenodd" d="M185.58 82.12L207.74 59.96H270.73L248.57 82.12H185.58Z" fill="#0F225E"/>
    <path fill-rule="evenodd" clip-rule="evenodd" d="M164.66 103.05L186.82 80.8799H249.81L227.64 103.05H164.66Z" fill="#1A337F"/>
    <path fill-rule="evenodd" clip-rule="evenodd" d="M376.87 16.8002L399.03 -5.35984V-68.3398L376.87 -46.1798V16.8002Z" fill="#2C468F"/>
    <path fill-rule="evenodd" clip-rule="evenodd" d="M355.44 38.2398L377.6 16.0698V-46.9102L355.44 -24.7502V38.2398Z" fill="#0F225E"/>
    <path fill-rule="evenodd" clip-rule="evenodd" d="M333.79 59.8902L355.95 37.7302V-25.2598L333.79 -3.09977V59.8902Z" fill="#2C468F"/>
    <path fill-rule="evenodd" clip-rule="evenodd" d="M312.79 80.8802L334.95 58.7202V-4.25977L312.79 17.9002V80.8802Z" fill="#1A337F"/>
    <path fill-rule="evenodd" clip-rule="evenodd" d="M291.36 102.32L313.52 80.1499V17.1699L291.36 39.3299V102.32Z" fill="#0F225E"/>
    <path fill-rule="evenodd" clip-rule="evenodd" d="M269.85 123.82L292.01 101.66V38.6797L269.85 60.8397V123.82Z" fill="#1A337F"/>
    <path fill-rule="evenodd" clip-rule="evenodd" d="M248.57 145.11L270.73 122.95V59.96L248.57 82.12V145.11Z" fill="#0F225E"/>
    <path fill-rule="evenodd" clip-rule="evenodd" d="M227.64 166.03L249.81 143.87V80.8799L227.64 103.05V166.03Z" fill="#1A337F"/>
    <path fill-rule="evenodd" clip-rule="evenodd" d="M375.78 143.871L397.94 121.711V58.7207L375.78 80.8807V143.871Z" fill="#1A337F"/>
    <path fill-rule="evenodd" clip-rule="evenodd" d="M354.351 165.3L376.511 143.14V80.1504L354.351 102.32V165.3Z" fill="#0F225E"/>
    <path fill-rule="evenodd" clip-rule="evenodd" d="M332.84 186.81L355 164.65V101.66L332.84 123.82V186.81Z" fill="#152D77"/>
    <path fill-rule="evenodd" clip-rule="evenodd" d="M311.55 208.1L333.71 185.93V122.95L311.55 145.11V208.1Z" fill="#0F225E"/>
    <path fill-rule="evenodd" clip-rule="evenodd" d="M290.63 229.02L312.79 206.86V143.87L290.63 166.03V229.02Z" fill="#1A337F"/>
    <path fill-rule="evenodd" clip-rule="evenodd" d="M376.87 16.8006L399.03 -5.35938H462.02L439.86 16.8006H376.87Z" fill="#2C468F"/>
    <path fill-rule="evenodd" clip-rule="evenodd" d="M355.44 38.2403L377.6 16.0703H440.59L418.43 38.2403H355.44Z" fill="#0F225E"/>
    <path fill-rule="evenodd" clip-rule="evenodd" d="M333.79 59.8905L355.95 37.7305H418.94L396.77 59.8905H333.79Z" fill="#2C468F"/>
    <path fill-rule="evenodd" clip-rule="evenodd" d="M312.79 80.8807L334.95 58.7207H397.94L375.78 80.8807H312.79Z" fill="#1A337F"/>
    <path fill-rule="evenodd" clip-rule="evenodd" d="M291.36 102.32L313.52 80.1504H376.51L354.35 102.32H291.36Z" fill="#0F225E"/>
    <path fill-rule="evenodd" clip-rule="evenodd" d="M269.85 123.82L292.01 101.66H355L332.84 123.82H269.85Z" fill="#152D77"/>
    <path fill-rule="evenodd" clip-rule="evenodd" d="M248.57 145.11L270.73 122.95H333.71L311.55 145.11H248.57Z" fill="#0F225E"/>
    <path fill-rule="evenodd" clip-rule="evenodd" d="M227.64 166.03L249.81 143.87H312.79L290.63 166.03H227.64Z" fill="#1A337F"/>
    <path fill-rule="evenodd" clip-rule="evenodd" d="M375.78 143.87L397.94 121.71H460.93L438.76 143.87H375.78Z" fill="#1A337F"/>
    <path fill-rule="evenodd" clip-rule="evenodd" d="M354.35 165.3L376.51 143.14H439.49L417.33 165.3H354.35Z" fill="#0F225E"/>
    <path fill-rule="evenodd" clip-rule="evenodd" d="M332.84 186.81L355 164.65H417.99L395.83 186.81H332.84Z" fill="#1A337F"/>
    <path fill-rule="evenodd" clip-rule="evenodd" d="M311.55 208.1L333.71 185.93H396.7L374.54 208.1H311.55Z" fill="#0F225E"/>
    <path fill-rule="evenodd" clip-rule="evenodd" d="M290.63 229.02L312.79 206.86H375.78L353.62 229.02H290.63Z" fill="#1A337F"/>
    <path fill-rule="evenodd" clip-rule="evenodd" d="M374.54 271.081L396.7 248.921V185.931L374.54 208.101V271.081Z" fill="#0F225E"/>
    <path fill-rule="evenodd" clip-rule="evenodd" d="M353.62 292L375.78 269.84V206.86L353.62 229.02V292Z" fill="#1A337F"/>
    <path style="mix-blend-mode:hue" d="M438.19 -36.2402H-13.7798V258.55H438.19V-36.2402Z" fill="url(#paint0_linear_85_1276)"/>
  </g>
  <defs>
    <linearGradient id="paint0_linear_85_1276" x1="-13.7798" y1="111.15" x2="438.19" y2="111.15" gradientUnits="userSpaceOnUse">
      <stop stop-color="white" stop-opacity="0"/>
      <stop offset="1" stop-color="#152D77"/>
    </linearGradient>
  </defs>
</svg>
